<?xml version="1.0" encoding="UTF-8" standalone="no"?><!DOCTYPE svg PUBLIC "-//W3C//DTD SVG 1.1//EN" "http://www.w3.org/Graphics/SVG/1.1/DTD/svg11.dtd"><svg width="100%" height="100%" viewBox="0 0 160 172" version="1.1" xmlns="http://www.w3.org/2000/svg" xmlns:xlink="http://www.w3.org/1999/xlink" xml:space="preserve" xmlns:serif="http://www.serif.com/" style="fill-rule:evenodd;clip-rule:evenodd;stroke-linejoin:round;stroke-miterlimit:2;"><g><path d="M126.83,57.11c-4.26,6.95 -8.56,13.88 -12.75,20.88c-1.75,2.93 -1.34,3.56 2.31,3.95c3.91,0.42 7.84,0.65 11.74,1.12c4.57,0.55 9.03,1.58 13.27,3.37c0.48,0.2 0.97,0.4 1.41,0.67c1.62,1.02 4.25,1.91 3.79,3.85c-0.5,2.14 -3.14,0.89 -4.81,0.94c-5.11,0.14 -10.24,-0.18 -15.2,1.36c-11.55,2.3 -19.17,8.59 -21.82,19.92c-6.2,-0.55 -11.54,1.8 -16.73,4.63c-1.35,-0.08 -2.57,0.27 -3.65,1.06c-11.16,4.64 -20.5,11.72 -28.71,20.19c-3.01,3.1 -6.38,4.2 -10.58,3.5c-1.55,-0.26 -3.1,-0.5 -4.66,-0.76c-2.6,-0.43 -5.21,-0.52 -7.84,-0.34c-1.8,0.13 -3.32,0.69 -4.15,2.37c-2.23,-0.34 -3.41,-1.83 -4.11,-3.68c-0.67,-1.78 -1.3,-3.6 -1.62,-5.45c-2.57,-14.6 -4.02,-29.32 -4.61,-44.11c0.25,-0.51 0.24,-1.01 -0.04,-1.51c-0.08,-2.78 -0.17,-5.56 -0.25,-8.34c0.1,-8.41 0.19,-16.82 0.32,-25.23c0.06,-4.01 0.22,-8.03 0.33,-12.04c0.48,-8.1 0.97,-16.19 1.45,-24.29c0.28,-0.06 0.56,-0.11 0.84,-0.17c3.97,8.24 7.94,16.48 11.91,24.72c2.2,5.68 4.99,11.12 7.61,16.62c0.16,0.34 0.44,0.61 1.26,0.52c0.06,-5.84 1.7,-11.54 2.58,-17.35c2.21,-5.23 3.81,-10.69 6.37,-15.78c0.66,-1.31 1.36,-2.61 2.3,-3.83c-0.49,6.79 -1.85,13.45 -1.14,20.23c-0.18,5.61 0.38,8.38 2.31,10.67c1.53,-3.56 3.01,-6.99 4.48,-10.42c8.29,-14.57 18.45,-27.87 29.64,-40.47c1,-1.13 1.8,-2.51 3.39,-3.09c1.32,0.74 0.9,2.02 0.94,3.05c0.35,8.08 -0.02,16.15 -0.58,24.22c-0.29,4.15 -0.73,8.3 -1.04,12.45c-0.08,1.08 -0.48,2.23 0.46,3.65c4.54,-5.6 9.22,-10.91 15.17,-14.9c0.29,0.15 0.58,0.3 0.87,0.45c-1.32,4.83 -2.64,9.66 -3.95,14.49c-0.22,0.3 -0.37,0.64 -0.05,0.91c0.35,0.3 0.63,0.04 0.86,-0.25c2.11,-2.11 4.5,-3.89 7.04,-5.48c10.09,-6.32 20.98,-11.04 32.33,-14.8c0.95,-0.31 1.93,-0.87 3.55,-0.25c-6.76,11 -13.94,21.63 -20.24,32.75Z" style="fill:#fff;fill-rule:nonzero;"/><path d="M79.82,134.8c-6.66,3.39 -12.75,7.51 -17.86,12.89c-2.86,3.01 -5.19,6.36 -6.54,10.25c-0.9,2.59 -0.65,3.26 1.78,4.68c1.66,0.97 3.42,1.78 5.4,2.8c-3.59,3 -7.74,3.58 -11.88,3.96c-3.39,0.32 -6.81,0 -10.21,-0.32c-2.62,-0.25 -4.32,-1.5 -5.61,-3.61c-3.79,-6.23 -5.62,-13.01 -6.34,-20.12c-0.05,-0.5 -0.09,-1 -0.14,-1.5c0.83,-1.68 2.35,-2.25 4.15,-2.37c2.63,-0.18 5.24,-0.1 7.84,0.34c1.55,0.26 3.1,0.5 4.66,0.76c4.2,0.71 7.57,-0.39 10.58,-3.5c8.22,-8.47 17.56,-15.55 28.71,-20.19c0.77,0.1 1.54,0.2 2.3,0.3c-5.72,3.81 -8.05,9 -6.84,15.63Z" style="fill:#fff;fill-rule:nonzero;"/></g><g><path d="M116.412,61.256c-3.721,5.973 -7.478,11.93 -11.138,17.946c-1.529,2.518 -1.171,3.06 2.018,3.395c3.416,0.361 6.849,0.559 10.256,0.963c3.993,0.472 7.889,1.358 11.593,2.896c0.419,0.172 0.847,0.344 1.232,0.576c1.415,0.877 3.713,1.642 3.311,3.309c-0.437,1.839 -2.743,0.765 -4.202,0.808c-4.464,0.12 -8.946,-0.155 -13.279,1.169c-10.09,1.977 -16.747,7.383 -19.062,17.121c-5.417,-0.473 -10.082,1.547 -14.616,3.979c-1.179,-0.069 -2.245,0.232 -3.189,0.911c-9.749,3.988 -17.909,10.073 -25.081,17.353c-2.629,2.665 -5.574,3.61 -9.243,3.009c-1.354,-0.224 -2.708,-0.43 -4.071,-0.654c-2.271,-0.369 -4.551,-0.447 -6.849,-0.292c-1.572,0.112 -2.9,0.593 -3.625,2.037c-1.948,-0.292 -2.979,-1.573 -3.591,-3.163c-0.585,-1.53 -1.136,-3.094 -1.415,-4.684c-2.245,-12.549 -3.512,-25.2 -4.027,-37.912c0.218,-0.438 0.209,-0.868 -0.035,-1.298c-0.07,-2.389 -0.149,-4.779 -0.219,-7.168c0.088,-7.228 0.166,-14.457 0.28,-21.685c0.052,-3.446 0.192,-6.901 0.288,-10.348c0.419,-6.962 0.847,-13.915 1.267,-20.877c0.244,-0.052 0.489,-0.095 0.734,-0.146c3.468,7.082 6.936,14.164 10.404,21.246c1.922,4.882 4.36,9.558 6.649,14.285c0.139,0.292 0.384,0.524 1.1,0.447c0.053,-5.019 1.485,-9.918 2.254,-14.912c1.931,-4.495 3.329,-9.188 5.565,-13.563c0.577,-1.126 1.188,-2.243 2.009,-3.292c-0.428,5.836 -1.616,11.56 -0.996,17.388c-0.157,4.822 0.332,7.202 2.019,9.171c1.336,-3.06 2.629,-6.008 3.913,-8.956c7.243,-12.523 16.118,-23.954 25.894,-34.784c0.874,-0.971 1.573,-2.157 2.962,-2.656c1.153,0.636 0.786,1.737 0.821,2.622c0.306,6.945 -0.018,13.881 -0.507,20.817c-0.253,3.567 -0.638,7.133 -0.908,10.7c-0.07,0.929 -0.42,1.917 0.401,3.137c3.967,-4.813 8.055,-9.377 13.253,-12.806c0.253,0.129 0.507,0.258 0.76,0.387c-1.153,4.151 -2.306,8.302 -3.451,12.454c-0.192,0.258 -0.323,0.55 -0.043,0.782c0.305,0.258 0.55,0.034 0.751,-0.215c1.843,-1.813 3.931,-3.343 6.15,-4.71c8.815,-5.432 18.329,-9.489 28.244,-12.72c0.83,-0.267 1.686,-0.748 3.101,-0.215c-5.905,9.454 -12.178,18.59 -17.682,28.148Z" style="fill:#7474b3;fill-rule:nonzero;"/></g></svg>